<svg id="Camada_1" xmlns="http://www.w3.org/2000/svg" xmlns:xlink="http://www.w3.org/1999/xlink" viewBox="0 0 64 64"><style>.st0{clip-path:url(#SVGID_2_);} .st1{clip-path:url(#SVGID_4_); fill: #fff}</style><defs><path id="SVGID_1_" d="M53.9 45.8h-5.6c-2 0-3.4-.2-4.9-1.1-1.4-.8-2.5-2-3.3-3.5-.4-.8-.5-2.2-.5-2.2v-7.4h3.3l-.2 6.4c0 2.5 2.1 4.6 4.6 4.6h6.5l.1 3.2zm0 3.6h-6.5c-6.3 0-11.5-5.1-11.5-11.5v-6.4h3.3V39c0 .1.1 1.6.5 2.4.8 1.6 2 2.7 3.4 3.6 1.6 1 3.1 1.2 5.1 1.2h5.7v3.2zM35.5 29.2c-1.1.2-2.2.3-3.4.3-1.2 0-2.4-.1-3.4-.3 0-3.8.1-11.9.1-12 0-1.3.1-2.5.2-3.6 1 .2 2.1.3 3.2.3s2.2-.1 3.2-.3c.1 1.1.2 2.3.2 3.6-.1 0-.2 8.3-.1 12zm-3.3 2.2c-1.3 0-2.5-.1-3.7-.3v-1.5c1.1.2 2.4.3 3.7.3 1.1 0 2.2-.1 3.2-.2v1.5c-1 .1-2 .2-3.2.2zm-.1 4.9s-1.3-1.7-1.5-4.6c.6 0 1.1.1 1.7.1h1.2c-.1 2.7-1.4 4.5-1.4 4.5zm-3.9-7.1h-7l7.1-10.8-.1 10.8zM16.7 49.4h-6.5v-3.2h5.7c2.1 0 3.5-.2 5.1-1.2 1.5-.9 2.6-2.1 3.4-3.6.4-.8.5-2.3.5-2.4v-7.4h3.3V38c0 6.3-5.2 11.4-11.5 11.4zm-6.6-6.9h6.5c2.6 0 4.6-2.1 4.6-4.6l-.1-6.4h3.3V39s-.1 1.5-.5 2.2c-.8 1.5-1.9 2.6-3.3 3.5-1.5.9-2.9 1.1-4.9 1.1H10v-3.3zm22-37.3c.2.2 2.3 2.6 3.1 8-1 .2-2.1.3-3.1.3-1.1 0-2.2-.1-3.1-.3.7-5.4 2.9-7.8 3.1-8zm3.8 13.2l6.9 10.8h-6.9V18.4zM32 0C14.3 0 0 14.3 0 32s14.3 32 32 32 32-14.3 32-32S49.7 0 32 0z"/></defs><clipPath id="SVGID_2_"><use xlink:href="#SVGID_1_" overflow="visible"/></clipPath><g class="st0"><defs><path id="SVGID_3_" d="M-136-678h1440v1969H-136z"/></defs><clipPath id="SVGID_4_"><use xlink:href="#SVGID_3_" overflow="visible"/></clipPath><path class="st1" d="M-5-5h74v74H-5z"/></g></svg>
